<svg preserveAspectRatio="none" overflow="visible" style="display: block;" width="18" height="18" viewBox="0 0 18 18" fill="none" xmlns="http://www.w3.org/2000/svg">
<g id="Icon / more">
<path id="Vector" d="M4 10.25C4.69036 10.25 5.25 9.69036 5.25 9C5.25 8.30964 4.69036 7.75 4 7.75C3.30964 7.75 2.75 8.30964 2.75 9C2.75 9.69036 3.30964 10.25 4 10.25Z" fill="#F3F3F3"/>
<path id="Vector_2" d="M9 10.25C9.69036 10.25 10.25 9.69036 10.25 9C10.25 8.30964 9.69036 7.75 9 7.75C8.30964 7.75 7.75 8.30964 7.75 9C7.75 9.69036 8.30964 10.25 9 10.25Z" fill="#F3F3F3"/>
<path id="Vector_3" d="M14 10.25C14.6904 10.25 15.25 9.69036 15.25 9C15.25 8.30964 14.6904 7.75 14 7.75C13.3096 7.75 12.75 8.30964 12.75 9C12.75 9.69036 13.3096 10.25 14 10.25Z" fill="#F3F3F3"/>
</g>
</svg>
